<svg xmlns="http://www.w3.org/2000/svg" viewBox="0 0 100 100" preserveAspectRatio="xMidYMid" width="200" height="200" style="shape-rendering: auto; display: block; background: transparent;" xmlns:xlink="http://www.w3.org/1999/xlink"><g><g transform="translate(50 50)"><g transform="scale(1)">
<path fill="#e15b64" stroke="none" transform="rotate(0 0 0)" d="M0 0L0 -40A40 40 0 0 1 28.2842712474619 -28.284271247461902"></path>
<animateTransform begin="-0.875s" repeatCount="indefinite" dur="1s" keyTimes="0;1" values="1;0.5" type="scale" attributeName="transform"></animateTransform>
</g><g transform="scale(1)">
<path fill="#f47e60" stroke="none" transform="rotate(45 0 0)" d="M0 0L0 -40A40 40 0 0 1 28.2842712474619 -28.284271247461902"></path>
<animateTransform begin="-0.75s" repeatCount="indefinite" dur="1s" keyTimes="0;1" values="1;0.5" type="scale" attributeName="transform"></animateTransform>
</g><g transform="scale(1)">
<path fill="#f8b26a" stroke="none" transform="rotate(90 0 0)" d="M0 0L0 -40A40 40 0 0 1 28.2842712474619 -28.284271247461902"></path>
<animateTransform begin="-0.625s" repeatCount="indefinite" dur="1s" keyTimes="0;1" values="1;0.5" type="scale" attributeName="transform"></animateTransform>
</g><g transform="scale(1)">
<path fill="#abbd81" stroke="none" transform="rotate(135 0 0)" d="M0 0L0 -40A40 40 0 0 1 28.2842712474619 -28.284271247461902"></path>
<animateTransform begin="-0.5s" repeatCount="indefinite" dur="1s" keyTimes="0;1" values="1;0.5" type="scale" attributeName="transform"></animateTransform>
</g><g transform="scale(1)">
<path fill="#e15b64" stroke="none" transform="rotate(180 0 0)" d="M0 0L0 -40A40 40 0 0 1 28.2842712474619 -28.284271247461902"></path>
<animateTransform begin="-0.375s" repeatCount="indefinite" dur="1s" keyTimes="0;1" values="1;0.5" type="scale" attributeName="transform"></animateTransform>
</g><g transform="scale(1)">
<path fill="#f47e60" stroke="none" transform="rotate(225 0 0)" d="M0 0L0 -40A40 40 0 0 1 28.2842712474619 -28.284271247461902"></path>
<animateTransform begin="-0.25s" repeatCount="indefinite" dur="1s" keyTimes="0;1" values="1;0.5" type="scale" attributeName="transform"></animateTransform>
</g><g transform="scale(1)">
<path fill="#f8b26a" stroke="none" transform="rotate(270 0 0)" d="M0 0L0 -40A40 40 0 0 1 28.2842712474619 -28.284271247461902"></path>
<animateTransform begin="-0.125s" repeatCount="indefinite" dur="1s" keyTimes="0;1" values="1;0.5" type="scale" attributeName="transform"></animateTransform>
</g><g transform="scale(1)">
<path fill="#abbd81" stroke="none" transform="rotate(315 0 0)" d="M0 0L0 -40A40 40 0 0 1 28.2842712474619 -28.284271247461902"></path>
<animateTransform begin="0s" repeatCount="indefinite" dur="1s" keyTimes="0;1" values="1;0.5" type="scale" attributeName="transform"></animateTransform>
</g></g><g></g></g><!-- [ldio] generated by https://loading.io --></svg>